<mxfile host="app.diagrams.net" modified="2023-09-28T11:51:55.111Z" agent="Mozilla/5.0 (Macintosh; Intel Mac OS X 10_15_7) AppleWebKit/605.1.15 (KHTML, like Gecko) Version/17.0 Safari/605.1.15" etag="G3nz7gSRjHHQ4BznxOaZ" version="21.8.0" type="github">
  <diagram name="Страница — 1" id="2-5jMEcXyABA7YPatudC">
    <mxGraphModel dx="1044" dy="645" grid="1" gridSize="10" guides="1" tooltips="1" connect="1" arrows="1" fold="1" page="1" pageScale="1" pageWidth="827" pageHeight="1169" math="0" shadow="0">
      <root>
        <mxCell id="0" />
        <mxCell id="1" parent="0" />
        <mxCell id="h6mwGvEFD_0hKBPChScZ-1" value=": начальник цеха&amp;nbsp;&lt;br&gt;" style="shape=umlActor;verticalLabelPosition=bottom;verticalAlign=top;html=1;outlineConnect=0;" vertex="1" parent="1">
          <mxGeometry x="70" y="60" width="30" height="60" as="geometry" />
        </mxCell>
        <mxCell id="h6mwGvEFD_0hKBPChScZ-4" value="" style="endArrow=none;dashed=1;html=1;dashPattern=1 3;strokeWidth=2;rounded=0;" edge="1" parent="1" target="h6mwGvEFD_0hKBPChScZ-1">
          <mxGeometry width="50" height="50" relative="1" as="geometry">
            <mxPoint x="80" y="642.3529411764706" as="sourcePoint" />
            <mxPoint x="110" y="180" as="targetPoint" />
          </mxGeometry>
        </mxCell>
        <mxCell id="h6mwGvEFD_0hKBPChScZ-5" value="формирование отчета со списком разрядов&amp;nbsp;" style="rounded=0;whiteSpace=wrap;html=1;" vertex="1" parent="1">
          <mxGeometry x="210" y="120" width="260" height="60" as="geometry" />
        </mxCell>
        <mxCell id="h6mwGvEFD_0hKBPChScZ-6" value="" style="endArrow=none;dashed=1;html=1;dashPattern=1 3;strokeWidth=2;rounded=0;" edge="1" parent="1" source="h6mwGvEFD_0hKBPChScZ-10">
          <mxGeometry width="50" height="50" relative="1" as="geometry">
            <mxPoint x="338" y="500" as="sourcePoint" />
            <mxPoint x="342.5" y="180" as="targetPoint" />
          </mxGeometry>
        </mxCell>
        <mxCell id="h6mwGvEFD_0hKBPChScZ-7" value="" style="endArrow=classic;html=1;rounded=0;entryX=1.022;entryY=1.067;entryDx=0;entryDy=0;entryPerimeter=0;" edge="1" parent="1" target="h6mwGvEFD_0hKBPChScZ-8">
          <mxGeometry width="50" height="50" relative="1" as="geometry">
            <mxPoint x="80" y="260" as="sourcePoint" />
            <mxPoint x="340" y="260" as="targetPoint" />
          </mxGeometry>
        </mxCell>
        <mxCell id="h6mwGvEFD_0hKBPChScZ-8" value="1: Запрос на формирование отчета()&amp;nbsp;" style="text;html=1;align=center;verticalAlign=middle;resizable=0;points=[];autosize=1;strokeColor=none;fillColor=none;" vertex="1" parent="1">
          <mxGeometry x="85" y="230" width="240" height="30" as="geometry" />
        </mxCell>
        <mxCell id="h6mwGvEFD_0hKBPChScZ-9" value="" style="endArrow=none;html=1;rounded=0;entryX=1;entryY=0.75;entryDx=0;entryDy=0;exitX=0;exitY=0.75;exitDx=0;exitDy=0;" edge="1" parent="1" source="h6mwGvEFD_0hKBPChScZ-5" target="h6mwGvEFD_0hKBPChScZ-5">
          <mxGeometry width="50" height="50" relative="1" as="geometry">
            <mxPoint x="180" y="220" as="sourcePoint" />
            <mxPoint x="230" y="170" as="targetPoint" />
          </mxGeometry>
        </mxCell>
        <mxCell id="h6mwGvEFD_0hKBPChScZ-11" value="" style="endArrow=none;dashed=1;html=1;dashPattern=1 3;strokeWidth=2;rounded=0;" edge="1" parent="1" target="h6mwGvEFD_0hKBPChScZ-10">
          <mxGeometry width="50" height="50" relative="1" as="geometry">
            <mxPoint x="340" y="590" as="sourcePoint" />
            <mxPoint x="342.5" y="180" as="targetPoint" />
          </mxGeometry>
        </mxCell>
        <mxCell id="h6mwGvEFD_0hKBPChScZ-10" value="" style="rounded=0;whiteSpace=wrap;html=1;" vertex="1" parent="1">
          <mxGeometry x="325" y="250" width="30" height="40" as="geometry" />
        </mxCell>
        <mxCell id="h6mwGvEFD_0hKBPChScZ-12" value=": Разряд&amp;nbsp;" style="rounded=0;whiteSpace=wrap;html=1;" vertex="1" parent="1">
          <mxGeometry x="530" y="130" width="110" height="40" as="geometry" />
        </mxCell>
        <mxCell id="h6mwGvEFD_0hKBPChScZ-13" value="" style="endArrow=none;html=1;rounded=0;entryX=1;entryY=0.75;entryDx=0;entryDy=0;exitX=0;exitY=0.75;exitDx=0;exitDy=0;" edge="1" parent="1" source="h6mwGvEFD_0hKBPChScZ-12" target="h6mwGvEFD_0hKBPChScZ-12">
          <mxGeometry width="50" height="50" relative="1" as="geometry">
            <mxPoint x="400" y="320" as="sourcePoint" />
            <mxPoint x="450" y="270" as="targetPoint" />
          </mxGeometry>
        </mxCell>
        <mxCell id="h6mwGvEFD_0hKBPChScZ-14" value="2: Запрос информации ()&amp;nbsp;" style="text;html=1;align=center;verticalAlign=middle;resizable=0;points=[];autosize=1;strokeColor=none;fillColor=none;" vertex="1" parent="1">
          <mxGeometry x="380" y="250" width="170" height="30" as="geometry" />
        </mxCell>
        <mxCell id="h6mwGvEFD_0hKBPChScZ-15" value="" style="endArrow=none;dashed=1;html=1;dashPattern=1 3;strokeWidth=2;rounded=0;entryX=0.5;entryY=1;entryDx=0;entryDy=0;" edge="1" parent="1" source="h6mwGvEFD_0hKBPChScZ-20" target="h6mwGvEFD_0hKBPChScZ-12">
          <mxGeometry width="50" height="50" relative="1" as="geometry">
            <mxPoint x="600" y="510" as="sourcePoint" />
            <mxPoint x="605" y="160" as="targetPoint" />
          </mxGeometry>
        </mxCell>
        <mxCell id="h6mwGvEFD_0hKBPChScZ-16" value="" style="endArrow=classic;html=1;rounded=0;exitX=1;exitY=1;exitDx=0;exitDy=0;entryX=0;entryY=0;entryDx=0;entryDy=0;" edge="1" parent="1" source="h6mwGvEFD_0hKBPChScZ-10" target="h6mwGvEFD_0hKBPChScZ-20">
          <mxGeometry width="50" height="50" relative="1" as="geometry">
            <mxPoint x="450" y="380" as="sourcePoint" />
            <mxPoint x="600" y="290" as="targetPoint" />
          </mxGeometry>
        </mxCell>
        <mxCell id="h6mwGvEFD_0hKBPChScZ-17" value="Базза данных" style="rounded=0;whiteSpace=wrap;html=1;" vertex="1" parent="1">
          <mxGeometry x="690" y="130" width="110" height="40" as="geometry" />
        </mxCell>
        <mxCell id="h6mwGvEFD_0hKBPChScZ-18" value="" style="endArrow=none;html=1;rounded=0;entryX=1;entryY=0.75;entryDx=0;entryDy=0;exitX=0;exitY=0.75;exitDx=0;exitDy=0;" edge="1" parent="1" source="h6mwGvEFD_0hKBPChScZ-17" target="h6mwGvEFD_0hKBPChScZ-17">
          <mxGeometry width="50" height="50" relative="1" as="geometry">
            <mxPoint x="560" y="170" as="sourcePoint" />
            <mxPoint x="670" y="170" as="targetPoint" />
            <Array as="points" />
          </mxGeometry>
        </mxCell>
        <mxCell id="h6mwGvEFD_0hKBPChScZ-19" value="" style="endArrow=none;dashed=1;html=1;dashPattern=1 3;strokeWidth=2;rounded=0;" edge="1" parent="1" source="h6mwGvEFD_0hKBPChScZ-24">
          <mxGeometry width="50" height="50" relative="1" as="geometry">
            <mxPoint x="750" y="520" as="sourcePoint" />
            <mxPoint x="747.5" y="170" as="targetPoint" />
          </mxGeometry>
        </mxCell>
        <mxCell id="h6mwGvEFD_0hKBPChScZ-21" value="" style="endArrow=none;dashed=1;html=1;dashPattern=1 3;strokeWidth=2;rounded=0;" edge="1" parent="1" target="h6mwGvEFD_0hKBPChScZ-20">
          <mxGeometry width="50" height="50" relative="1" as="geometry">
            <mxPoint x="585" y="560" as="sourcePoint" />
            <mxPoint x="605" y="160" as="targetPoint" />
          </mxGeometry>
        </mxCell>
        <mxCell id="h6mwGvEFD_0hKBPChScZ-20" value="" style="rounded=0;whiteSpace=wrap;html=1;" vertex="1" parent="1">
          <mxGeometry x="570" y="290" width="30" height="40" as="geometry" />
        </mxCell>
        <mxCell id="h6mwGvEFD_0hKBPChScZ-22" value="" style="endArrow=classic;html=1;rounded=0;exitX=1;exitY=1;exitDx=0;exitDy=0;entryX=0;entryY=1;entryDx=0;entryDy=0;" edge="1" parent="1" target="h6mwGvEFD_0hKBPChScZ-24">
          <mxGeometry width="50" height="50" relative="1" as="geometry">
            <mxPoint x="570" y="330" as="sourcePoint" />
            <mxPoint x="740" y="330" as="targetPoint" />
          </mxGeometry>
        </mxCell>
        <mxCell id="h6mwGvEFD_0hKBPChScZ-23" value="3: Запрос информации ()&amp;nbsp;" style="text;html=1;align=center;verticalAlign=middle;resizable=0;points=[];autosize=1;strokeColor=none;fillColor=none;" vertex="1" parent="1">
          <mxGeometry x="590" y="295" width="170" height="30" as="geometry" />
        </mxCell>
        <mxCell id="h6mwGvEFD_0hKBPChScZ-26" value="" style="endArrow=none;dashed=1;html=1;dashPattern=1 3;strokeWidth=2;rounded=0;" edge="1" parent="1" target="h6mwGvEFD_0hKBPChScZ-25">
          <mxGeometry width="50" height="50" relative="1" as="geometry">
            <mxPoint x="750" y="520" as="sourcePoint" />
            <mxPoint x="747.5" y="170" as="targetPoint" />
          </mxGeometry>
        </mxCell>
        <mxCell id="h6mwGvEFD_0hKBPChScZ-25" value="" style="rounded=0;whiteSpace=wrap;html=1;" vertex="1" parent="1">
          <mxGeometry x="735" y="420" width="30" height="40" as="geometry" />
        </mxCell>
        <mxCell id="h6mwGvEFD_0hKBPChScZ-27" value="" style="endArrow=none;dashed=1;html=1;dashPattern=1 3;strokeWidth=2;rounded=0;" edge="1" parent="1" source="h6mwGvEFD_0hKBPChScZ-25" target="h6mwGvEFD_0hKBPChScZ-24">
          <mxGeometry width="50" height="50" relative="1" as="geometry">
            <mxPoint x="745" y="420" as="sourcePoint" />
            <mxPoint x="747.5" y="170" as="targetPoint" />
          </mxGeometry>
        </mxCell>
        <mxCell id="h6mwGvEFD_0hKBPChScZ-28" style="edgeStyle=orthogonalEdgeStyle;rounded=0;orthogonalLoop=1;jettySize=auto;html=1;exitX=0.5;exitY=0;exitDx=0;exitDy=0;entryX=1;entryY=0.5;entryDx=0;entryDy=0;" edge="1" parent="1" source="h6mwGvEFD_0hKBPChScZ-24" target="h6mwGvEFD_0hKBPChScZ-25">
          <mxGeometry relative="1" as="geometry" />
        </mxCell>
        <mxCell id="h6mwGvEFD_0hKBPChScZ-24" value="" style="rounded=0;whiteSpace=wrap;html=1;direction=south;" vertex="1" parent="1">
          <mxGeometry x="730" y="330" width="35" height="40" as="geometry" />
        </mxCell>
        <mxCell id="h6mwGvEFD_0hKBPChScZ-29" value="4 : обработка ()" style="text;html=1;align=center;verticalAlign=middle;resizable=0;points=[];autosize=1;strokeColor=none;fillColor=none;" vertex="1" parent="1">
          <mxGeometry x="790" y="390" width="110" height="30" as="geometry" />
        </mxCell>
        <mxCell id="h6mwGvEFD_0hKBPChScZ-30" value="" style="endArrow=none;dashed=1;html=1;dashPattern=1 3;strokeWidth=2;rounded=0;entryX=0;entryY=1;entryDx=0;entryDy=0;startArrow=classic;startFill=1;" edge="1" parent="1" target="h6mwGvEFD_0hKBPChScZ-25">
          <mxGeometry width="50" height="50" relative="1" as="geometry">
            <mxPoint x="590" y="460" as="sourcePoint" />
            <mxPoint x="410" y="220" as="targetPoint" />
          </mxGeometry>
        </mxCell>
        <mxCell id="h6mwGvEFD_0hKBPChScZ-31" value="5 : Извлечение данных из Баззы данных&amp;nbsp;" style="text;html=1;align=center;verticalAlign=middle;resizable=0;points=[];autosize=1;strokeColor=none;fillColor=none;" vertex="1" parent="1">
          <mxGeometry x="490" y="460" width="260" height="30" as="geometry" />
        </mxCell>
        <mxCell id="h6mwGvEFD_0hKBPChScZ-32" value="" style="endArrow=none;dashed=1;html=1;dashPattern=1 3;strokeWidth=2;rounded=0;entryX=0;entryY=1;entryDx=0;entryDy=0;startArrow=classic;startFill=1;" edge="1" parent="1">
          <mxGeometry width="50" height="50" relative="1" as="geometry">
            <mxPoint x="340" y="500" as="sourcePoint" />
            <mxPoint x="585" y="500" as="targetPoint" />
          </mxGeometry>
        </mxCell>
        <mxCell id="h6mwGvEFD_0hKBPChScZ-33" value="6: заполнение формы&amp;nbsp;" style="text;html=1;align=center;verticalAlign=middle;resizable=0;points=[];autosize=1;strokeColor=none;fillColor=none;" vertex="1" parent="1">
          <mxGeometry x="370" y="508" width="150" height="30" as="geometry" />
        </mxCell>
        <mxCell id="h6mwGvEFD_0hKBPChScZ-34" value="" style="endArrow=none;dashed=1;html=1;dashPattern=1 3;strokeWidth=2;rounded=0;entryX=0;entryY=1;entryDx=0;entryDy=0;startArrow=classic;startFill=1;" edge="1" parent="1">
          <mxGeometry width="50" height="50" relative="1" as="geometry">
            <mxPoint x="80" y="583" as="sourcePoint" />
            <mxPoint x="335" y="583" as="targetPoint" />
          </mxGeometry>
        </mxCell>
        <mxCell id="h6mwGvEFD_0hKBPChScZ-35" value="7 : Вывод отчета&amp;nbsp;" style="text;html=1;align=center;verticalAlign=middle;resizable=0;points=[];autosize=1;strokeColor=none;fillColor=none;" vertex="1" parent="1">
          <mxGeometry x="130" y="600" width="120" height="30" as="geometry" />
        </mxCell>
      </root>
    </mxGraphModel>
  </diagram>
</mxfile>
